<?xml version="1.0" encoding="utf-8"?>
<!-- Generator: Adobe Illustrator 16.0.0, SVG Export Plug-In . SVG Version: 6.00 Build 0)  -->
<!DOCTYPE svg PUBLIC "-//W3C//DTD SVG 1.1//EN" "http://www.w3.org/Graphics/SVG/1.1/DTD/svg11.dtd">
<svg version="1.1" id="Capa_1" xmlns="http://www.w3.org/2000/svg" xmlns:xlink="http://www.w3.org/1999/xlink" x="0px" y="0px"
	 width="280px" height="280px" viewBox="0 0 280 280" enable-background="new 0 0 280 280" xml:space="preserve">
<g>
	<g>
		<path fill="#FFFFFF" d="M231.07,147.99c-2.25,0-4.08,1.82-4.08,4.07c0,2.85-2.32,5.17-5.17,5.17c-2.85,0-5.17-2.32-5.17-5.17
			c0-2.25-1.82-4.07-4.08-4.07c-2.25,0-4.07,1.82-4.07,4.07c0,7.35,5.98,13.32,13.32,13.32c7.35,0,13.32-5.98,13.32-13.32
			C235.14,149.81,233.32,147.99,231.07,147.99z"/>
	</g>
</g>
<g>
	<g>
		<path fill="#FFFFFF" d="M269.32,148.66l-11.47-3.67c-1.47-0.47-2.63-1.64-3.1-3.14c-2.42-7.68-6.07-14.9-10.84-21.44
			c-2.18-2.98-4.6-5.83-7.24-8.54c1.69-7.42,2.61-15.82,2.49-23.08c-0.17-10.38-2.25-16.47-6.34-18.62
			c-2.21-1.16-8.92-4.67-45.27,11.97c-0.86,0.39-1.66,0.88-2.41,1.43c-2.45-0.66-4.96-1.27-7.48-1.81c-0.3-0.07-0.62-0.12-0.92-0.19
			c2.95-6.43,4.67-13.42,4.99-20.64c-0.34-12.79-3.84-18.94-6.09-19.04c-2.24-0.11-1.63,5.88-2.05,18.68
			c-0.53,11.86-5.45,23.02-13.86,31.43c-5.02,5.02-10.9,8.67-17.17,10.96c-10.87-1.52-21.93-1.52-32.8,0
			c-6.27-2.3-12.14-5.94-17.17-10.96c-8.97-8.97-13.9-20.89-13.9-33.56c0-12.68,4.94-24.6,13.9-33.56
			c8.97-8.97,20.89-13.9,33.56-13.9c12.67,0,24.6,4.94,33.56,13.9c3.6,3.6,8.78,10.65,10.28,15.9c7.06,22.06,6.49,19.01,8.5,18
			c2.01-1.01,4.03-6.28-1.38-21.63c-2.13-6-7.42-13.82-11.64-18.04C154.99,8.58,141.02,2.8,126.16,2.8
			c-14.86,0-28.82,5.79-39.33,16.29C76.33,29.6,70.54,43.56,70.54,58.42s5.79,28.82,16.29,39.33c3.03,3.03,6.33,5.64,9.81,7.82l0,0
			c-2.53,0.66-5.05,1.4-7.53,2.23c-2.13,0.71-3.29,3.02-2.57,5.16c0.71,2.13,3.02,3.29,5.16,2.57c22.22-7.43,46.7-7.43,68.92,0
			c0.43,0.14,0.86,0.21,1.29,0.21c1.71,0,3.29-1.08,3.87-2.78c0.71-2.13-0.44-4.44-2.57-5.16c-2.49-0.83-5-1.57-7.54-2.23l0,0
			c3.49-2.18,6.78-4.79,9.81-7.82c2.68-2.68,5.05-5.61,7.1-8.72c1.12,0.22,2.24,0.45,3.34,0.69c1.46,0.32,2.92,0.66,4.36,1.02
			c-0.04,0.18-0.09,0.35-0.13,0.53c-1.99,9.43-1.86,17.77,0.38,24.79c2.02,6.31,5.65,11.42,10.81,15.19
			c6.08,4.44,13.41,6.37,20.06,6.37c5,0,9.61-1.09,13-3.01c3.83-2.17,7.04-6.74,9.58-13.6c1.17,1.37,2.29,2.77,3.34,4.21
			c4.25,5.83,7.5,12.25,9.65,19.08c1.26,4.02,4.4,7.17,8.38,8.45l11.47,3.67c3.01,0.96,5.03,3.73,5.03,6.89v19.02
			c0,3.16-2.02,5.93-5.03,6.89l-18.48,5.92c-2.96,0.95-5.46,2.98-7.04,5.72c-7.26,12.55-18.67,22.93-33.93,30.86
			c-1.76,0.92-2.98,2.56-3.35,4.5l-5.92,31.34c-0.16,0.86-0.92,1.49-1.8,1.49h-19.24c-0.88,0-1.63-0.63-1.8-1.49l-3.28-17.32
			c-0.65-3.41-3.84-5.67-7.28-5.15c-8.29,1.25-16.83,1.89-25.39,1.89c-6.36,0-12.65-0.36-18.68-1.06c-3.33-0.38-6.44,1.89-7.06,5.18
			l-3.12,16.46c-0.16,0.86-0.92,1.49-1.8,1.49H89.41c-0.88,0-1.63-0.63-1.8-1.5l-5.7-29.6c-0.37-1.91-1.56-3.53-3.29-4.45
			c-26-13.88-39.74-37.07-39.74-67.06c0-15.15,3.32-28.55,9.85-39.83c6.1-10.52,15.01-19.22,26.48-25.86
			c1.95-1.13,2.61-3.62,1.49-5.57c-1.12-1.95-3.62-2.61-5.57-1.49c-22.25,12.87-35.66,32.72-39.36,57.94l0,0
			c-0.39-0.04-0.78-0.07-1.18-0.11c0.07-2.72-0.42-5.47-1.49-8.13c-2.36-5.88-7.22-10.12-12.37-10.81
			c-4.06-0.54-7.92,1.18-10.6,4.72c-3.89,5.14-3.25,9.2-2.04,11.71c2.05,4.23,7.33,7.22,16.08,9.1c-0.24,0.36-0.51,0.72-0.8,1.09
			c-5.17,6.49-11.27,7.92-15.22,8.06c-2.32,0.08-4.17,1.94-4.17,4.26v0.02c0,2.29,1.8,4.15,4.09,4.25c0.29,0.01,0.6,0.02,0.92,0.02
			c5.01,0,13.04-1.85,20.76-11.53c1.22-1.53,2.21-3.14,2.98-4.81c0.77,0.09,1.51,0.16,2.22,0.23l0,0c-0.14,2.21-0.22,4.45-0.22,6.73
			c0,16.97,4.05,32.1,12.02,44.97c7.36,11.87,17.89,21.58,31.31,28.89l5.54,28.77c0.89,4.71,5.01,8.12,9.81,8.12h19.24
			c4.79,0,8.92-3.42,9.81-8.12l2.82-14.88c5.85,0.62,11.91,0.93,18.03,0.93c8.4,0,16.79-0.58,24.97-1.74l2.97,15.69
			c0.89,4.71,5.02,8.12,9.81,8.12h19.24c4.79,0,8.92-3.42,9.81-8.13l5.76-30.51c16.28-8.61,28.55-19.92,36.48-33.62
			c0.57-0.99,1.45-1.71,2.48-2.04l18.48-5.92c6.4-2.05,10.69-7.94,10.69-14.66v-19.02C280.01,156.6,275.71,150.71,269.32,148.66z
			 M230.4,100.23c-1.57,13.41-5.78,24.89-10,27.28c-4.8,2.72-15.9,3.25-24.23-2.85c-8.34-6.1-11.11-17.07-8.03-31.72l0,0
			c0.31-1.47,1.36-2.75,2.8-3.4c20.4-9.34,32.16-12.39,36.53-12.39c0.66,0,1.15,0.07,1.48,0.2
			C230.26,78.74,231.98,86.69,230.4,100.23z M11.45,145.47c-0.42-0.87,0.57-2.4,1.2-3.23c1-1.32,1.92-1.59,2.62-1.59
			c0.15,0,0.28,0.01,0.41,0.03c1.87,0.25,4.5,2.31,5.89,5.77c0.33,0.81,0.75,2.16,0.85,3.84C16.78,149.12,12.4,147.43,11.45,145.47z
			"/>
	</g>
</g>
</svg>
