<?xml version="1.0" encoding="utf-8"?>
<!-- Generator: Adobe Illustrator 16.0.0, SVG Export Plug-In . SVG Version: 6.00 Build 0)  -->
<!DOCTYPE svg PUBLIC "-//W3C//DTD SVG 1.1//EN" "http://www.w3.org/Graphics/SVG/1.1/DTD/svg11.dtd">
<svg version="1.1" id="Capa_1" xmlns="http://www.w3.org/2000/svg" xmlns:xlink="http://www.w3.org/1999/xlink" x="0px" y="0px"
	 width="280px" height="280px" viewBox="0 0 280 280" enable-background="new 0 0 280 280" xml:space="preserve">
<g>
	<path fill="#FFFFFF" d="M264.79,110.03h-25.87c-4.16,0-7.58-2.29-9.18-6.13c-1.59-3.84-0.78-7.88,2.15-10.82l18.29-18.28
		c2.69-2.69,4.17-6.27,4.17-10.07s-1.48-7.38-4.17-10.07l-23.31-23.31c-5.38-5.38-14.75-5.39-20.14,0l-18.29,18.28
		c-2.94,2.93-6.99,3.75-10.82,2.16c-3.84-1.59-6.13-5.02-6.13-9.18V16.73c0-7.85-6.39-14.23-14.24-14.23h-32.98
		c-7.85,0-14.23,6.38-14.23,14.23V42.6c0,4.16-2.29,7.58-6.13,9.18c-3.83,1.6-7.88,0.78-10.82-2.16L74.81,31.34
		c-5.39-5.39-14.76-5.38-20.14,0L31.36,54.65c-2.69,2.69-4.17,6.27-4.17,10.07c0,3.8,1.48,7.37,4.17,10.07l18.29,18.28
		c2.93,2.94,3.74,6.98,2.15,10.82c-1.59,3.84-5.02,6.13-9.18,6.13H16.75c-7.85,0-14.23,6.39-14.23,14.23v32.97
		c0,7.85,6.38,14.24,14.23,14.24h25.87c4.16,0,7.58,2.29,9.18,6.13c1.6,3.84,0.78,7.88-2.15,10.82l-18.29,18.28
		c-2.69,2.69-4.17,6.27-4.17,10.07c0,3.8,1.48,7.38,4.17,10.07l23.31,23.31c5.38,5.38,14.75,5.39,20.14,0l18.28-18.29
		c2.94-2.93,6.98-3.74,10.82-2.15c3.84,1.59,6.13,5.02,6.13,9.18v25.87c0,7.85,6.39,14.23,14.23,14.23h32.97
		c7.85,0,14.23-6.38,14.23-14.23V238.9c0-4.16,2.29-7.58,6.13-9.18c3.85-1.6,7.89-0.78,10.82,2.15l18.29,18.29
		c5.39,5.39,14.76,5.38,20.14,0l23.31-23.31c2.69-2.69,4.17-6.27,4.17-10.07c0-3.8-1.48-7.37-4.17-10.07l-18.29-18.28
		c-2.93-2.94-3.74-6.98-2.15-10.82c1.59-3.84,5.02-6.13,9.18-6.13h25.87c7.85,0,14.23-6.39,14.23-14.24v-32.98
		C279.02,116.41,272.64,110.03,264.79,110.03z M268.78,157.24c0,2.2-1.79,3.99-3.99,3.99h-25.87c-8.32,0-15.46,4.77-18.64,12.45
		c-3.18,7.68-1.51,16.11,4.37,21.99l18.29,18.29c1.56,1.56,1.56,4.1,0,5.65l-23.31,23.31c-1.56,1.56-4.09,1.57-5.65,0l-18.29-18.29
		c-5.88-5.88-14.31-7.55-21.99-4.37s-12.45,10.32-12.45,18.64v25.87c0,2.2-1.79,3.99-3.99,3.99h-32.98c-2.2,0-3.99-1.79-3.99-3.99
		V238.9c0-8.32-4.77-15.46-12.45-18.64c-2.58-1.07-5.23-1.59-7.85-1.59c-5.19,0-10.23,2.05-14.14,5.96l-18.29,18.29
		c-1.57,1.57-4.1,1.56-5.65,0L38.6,219.61c-1.56-1.56-1.56-4.1,0-5.65l18.29-18.28c5.88-5.88,7.56-14.31,4.37-21.99
		c-3.18-7.67-10.32-12.45-18.64-12.45H16.75c-2.2,0-3.99-1.79-3.99-3.99v-32.98c0-2.2,1.79-3.99,3.99-3.99h25.87
		c8.32,0,15.46-4.77,18.64-12.45c3.19-7.68,1.51-16.11-4.37-21.99L38.6,67.55c-1.56-1.56-1.56-4.1,0-5.65l23.31-23.31
		c1.56-1.56,4.09-1.56,5.65,0l18.29,18.29c5.87,5.87,14.3,7.56,21.99,4.37c7.68-3.17,12.45-10.32,12.45-18.63V16.73
		c0-2.2,1.79-3.99,3.99-3.99h32.97c2.21,0,4,1.79,4,3.99V42.6c0,8.32,4.77,15.46,12.45,18.64c7.69,3.19,16.11,1.51,21.99-4.37
		l18.29-18.28c1.57-1.56,4.1-1.56,5.65,0l23.31,23.31c1.56,1.56,1.56,4.1,0,5.65l-18.29,18.28c-5.88,5.88-7.56,14.31-4.37,21.99
		c3.18,7.68,10.32,12.45,18.64,12.45h25.87c2.2-0.01,3.99,1.79,3.99,3.99V157.24L268.78,157.24z"/>
	<path fill="#FFFFFF" d="M140.77,94.67c-25.41,0-46.08,20.67-46.08,46.08s20.67,46.08,46.08,46.08s46.08-20.67,46.08-46.08
		S166.18,94.67,140.77,94.67z M140.77,176.59c-19.76,0-35.84-16.08-35.84-35.84s16.08-35.84,35.84-35.84s35.84,16.08,35.84,35.84
		S160.53,176.59,140.77,176.59z"/>
</g>
</svg>
