<?xml version="1.0" encoding="utf-8"?>
<!-- Generator: Adobe Illustrator 16.0.0, SVG Export Plug-In . SVG Version: 6.00 Build 0)  -->
<!DOCTYPE svg PUBLIC "-//W3C//DTD SVG 1.1//EN" "http://www.w3.org/Graphics/SVG/1.1/DTD/svg11.dtd">
<svg version="1.1" id="Capa_1" xmlns="http://www.w3.org/2000/svg" xmlns:xlink="http://www.w3.org/1999/xlink" x="0px" y="0px"
	 width="368px" height="3208px" viewBox="-203.5 -1615.5 368 3208" enable-background="new -203.5 -1615.5 368 3208"
	 xml:space="preserve">
<g>
	<g>
		<path fill="#FFFFFF" d="M-16-1439l-34.64-30.32l-99.04,84.9c3.6,3.34,8.46,5.42,13.82,5.42h239.72c5.34,0,10.18-2.08,13.76-5.42
			l-98.98-84.9L-16-1439z"/>
		<path fill="#FFFFFF" d="M117.68-1573.58c-3.6-3.36-8.44-5.42-13.82-5.42h-239.72c-5.34,0-10.18,2.08-13.78,5.46L-16-1459
			L117.68-1573.58z"/>
		<polygon fill="#FFFFFF" points="-156,-1561.44 -156,-1395.28 -59.34,-1477.42 		"/>
		<polygon fill="#FFFFFF" points="27.34,-1477.42 124,-1395.28 124,-1561.5 		"/>
	</g>
</g>
<path fill="#FFFFFF" d="M107.64-43.8c-1.65-1.64-4.01-2.35-6.3-1.9L34.67-32.36c-2.14,0.43-3.95,1.83-4.91,3.79
	c-0.96,1.96-0.95,4.25,0.03,6.2L39.5-2.92L15.48,5.06L4.15-111.52h45.22c0.01,0,0.01,0,0.02,0c3.86,0,7-3.13,7-7
	c0-1.32-0.37-2.56-1-3.62l-13.11-25.68c-1.2-2.34-3.6-3.82-6.23-3.82H18.4c4.54-6.82,7.18-15,7.18-23.79
	c0-23.76-19.32-43.08-43.08-43.08s-43.08,19.33-43.08,43.08c0,8.79,2.65,16.96,7.18,23.79h-17.64c-2.63,0-5.04,1.47-6.23,3.81
	l-13.33,26.12c-1.11,2.17-1.01,4.76,0.26,6.83c1.27,2.08,3.53,3.34,5.97,3.34h45.22L-50.49,5.05l-24.02-7.99l9.72-19.44
	c0.98-1.95,0.99-4.24,0.03-6.2c-0.96-1.96-2.77-3.36-4.91-3.79l-66.67-13.33c-2.29-0.46-4.65,0.25-6.3,1.9
	c-1.65,1.64-2.38,4-1.94,6.29l12.93,67.08c0.42,2.16,1.82,3.99,3.79,4.96c1.97,0.96,4.28,0.95,6.24-0.04l23.93-12.14l76.85,38.43
	c0.99,0.49,2.06,0.74,3.13,0.74c1.07,0,2.13-0.24,3.12-0.73l77.26-38.44l23.94,12.15c1.96,0.99,4.27,1.01,6.24,0.04
	c1.97-0.97,3.38-2.8,3.79-4.96l12.93-67.08C110.02-39.8,109.29-42.16,107.64-43.8z M-17.5-190.52c8.33,0,15.1,6.77,15.1,15.1
	s-6.77,15.1-15.1,15.1c-8.33,0-15.1-6.77-15.1-15.1S-25.83-190.52-17.5-190.52z"/>
<g>
	<path fill="#FFFFFF" d="M110.75,914.77c-14.2-13.87-33.82-20.8-58.87-20.8c-6.93,0-14.01,1.2-21.22,3.6
		c-7.21,2.4-13.92,5.65-20.12,9.73c-6.21,4.08-11.54,7.91-16.02,11.49c-4.47,3.58-8.72,7.38-12.75,11.41
		c-4.03-4.02-8.28-7.83-12.75-11.41c-4.47-3.58-9.81-7.41-16.02-11.49c-6.21-4.08-12.92-7.32-20.13-9.73
		c-7.21-2.4-14.28-3.6-21.21-3.6c-25.05,0-44.67,6.93-58.87,20.8c-14.2,13.86-21.3,33.09-21.3,57.69c0,7.49,1.32,15.21,3.94,23.14
		c2.63,7.94,5.62,14.7,8.97,20.29c3.35,5.59,7.15,11.04,11.4,16.35c4.25,5.31,7.35,8.97,9.31,10.99c1.96,2.01,3.5,3.46,4.61,4.36
		l104.65,100.97c2.01,2.01,4.47,3.02,7.38,3.02c2.91,0,5.37-1.01,7.38-3.02l104.49-100.63c25.61-25.6,38.41-50.76,38.41-75.47
		C132.05,947.86,124.95,928.63,110.75,914.77z"/>
</g>
<g>
	<path fill="#FFFFFF" d="M-32.01-714.35c-3.38-12.95-5.12-26.23-5.19-39.57l-0.22-41.36c-0.02-3.24-1.15-6.39-3.23-8.96
		l-31.79-39.26c-5.14-6.35-14.71-8.07-21.64-3.51c-7.4,4.87-8.94,14.54-3.52,21.24l19.03,23.51c3.11,3.84,4.32,8.76,3.33,13.51l0,0
		c-0.89,4.28-6.38,6.01-9.81,3.1l-36.23-30.76c-7.29-6.19-11.22-15.17-10.69-24.43l3.82-66.94c0.47-8.19-6.16-15.18-14.81-15.63
		c-8.65-0.44-16.04,5.84-16.5,14.02l-5.62,98.43c-0.19,3.3,0.79,6.56,2.78,9.27l52.26,71.24c6.7,9.14,11.58,19.36,14.4,30.16
		l2.98,11.43c1.74,6.68,8.07,11.37,15.33,11.37h34.39c3.66,0,7.29-1.06,10.15-3.21c4.95-3.73,7-9.73,5.54-15.32L-32.01-714.35z"/>
	<path fill="#FFFFFF" d="M-2-714.35c3.38-12.95,5.12-26.23,5.19-39.57l0.22-41.36c0.02-3.24,1.15-6.39,3.23-8.96l31.79-39.26
		c5.14-6.35,14.71-8.07,21.64-3.51c7.4,4.87,8.94,14.54,3.52,21.24l-19.03,23.51c-3.11,3.84-4.32,8.76-3.33,13.51l0,0
		c0.89,4.28,6.38,6.01,9.81,3.1l36.22-30.77c7.29-6.19,11.22-15.17,10.69-24.43l-3.82-66.94c-0.47-8.19,6.16-15.18,14.81-15.63
		c8.65-0.44,16.04,5.84,16.5,14.02l5.62,98.43c0.19,3.3-0.79,6.56-2.78,9.27l-52.26,71.24c-6.7,9.14-11.58,19.36-14.4,30.16
		l-2.98,11.43c-1.74,6.67-8.07,11.37-15.33,11.37H8.92c-3.66,0-7.29-1.06-10.15-3.21c-4.95-3.73-7-9.73-5.54-15.32L-2-714.35z"/>
	<ellipse fill="#FFFFFF" cx="-15.89" cy="-892.13" rx="80.5" ry="34.86"/>
</g>
<path fill="#FFFFFF" d="M121.25-486.96c-0.59-1.81-2.16-3.14-4.05-3.41l-90.67-13.18l-40.55-82.16c-0.84-1.71-2.59-2.8-4.49-2.8
	c-1.9,0-3.65,1.08-4.49,2.8l-40.55,82.16l-90.67,13.18c-1.89,0.28-3.45,1.59-4.05,3.41c-0.59,1.81-0.1,3.8,1.27,5.13l65.61,63.95
	l-15.49,90.3c-0.32,1.88,0.45,3.78,1.99,4.9c1.55,1.13,3.6,1.28,5.28,0.38l81.1-42.63l81.09,42.63c0.73,0.39,1.54,0.58,2.34,0.58
	c1.04,0,2.07-0.32,2.95-0.96c1.54-1.12,2.32-3.02,1.99-4.9l-15.49-90.3l65.61-63.96C121.35-483.16,121.85-485.15,121.25-486.96z"/>
<g>
	<path fill="#FFFFFF" d="M28.59,1391.1L1.8,1344.34h-37.51l-24.36,46.76H28.59z"/>
	<path fill="#FFFFFF" d="M-61.45,1406.69l43.9,119.75l50.41-119.75H-61.45z"/>
	<path fill="#FFFFFF" d="M-150.41,1406.69L-26.6,1547.5l0.09-0.2l-51.7-140.61H-150.41z"/>
	<path fill="#FFFFFF" d="M-53.29,1344.34h-61.8l-35.32,46.76h72.76L-53.29,1344.34z"/>
	<path fill="#FFFFFF" d="M46.56,1391.1h69.06l-35.31-46.76H19.77L46.56,1391.1z"/>
	<path fill="#FFFFFF" d="M-9.58,1546.58l0.37,0.93l124.84-140.81H49.98L-9.58,1546.58z"/>
	<path fill="#FFFFFF" d="M-25.19,1281.47H-9.6v23.38h-15.59V1281.47z"/>
	<path fill="#FFFFFF" d="M-58.33,1299.71l15.59,15.59l-11.02,11.02l-15.59-15.59L-58.33,1299.71z"/>
	<path fill="#FFFFFF" d="M24.18,1299.7l11.02,11.02l-15.59,15.59l-11.02-11.02L24.18,1299.7z"/>
</g>
<g>
	<path fill="#FFFFFF" d="M-145.5,556.55v135.93c0,13.39,11.45,24.71,25,24.71h33.33v41.19c0,1.7,1.06,3.23,2.66,3.84
		c0.49,0.19,1,0.28,1.5,0.28c1.15,0,2.27-0.47,3.08-1.35l40.43-43.96H79.5c13.55,0,25-11.32,25-24.71V556.55
		c0-13.4-11.45-24.71-25-24.71h-200C-134.05,531.83-145.5,543.15-145.5,556.55z M21.17,622.45c0-9.09,7.48-16.48,16.67-16.48
		c9.19,0,16.67,7.39,16.67,16.48c0,9.09-7.47,16.48-16.67,16.48C28.64,638.93,21.17,631.54,21.17,622.45z M-37.17,622.45
		c0-9.09,7.47-16.48,16.67-16.48s16.67,7.39,16.67,16.48c0,9.09-7.47,16.48-16.67,16.48S-37.17,631.54-37.17,622.45z M-95.5,622.45
		c0-9.09,7.47-16.48,16.67-16.48s16.67,7.39,16.67,16.48c0,9.09-7.48,16.48-16.67,16.48S-95.5,631.54-95.5,622.45z"/>
</g>
<g>
	<path fill="#FFFFFF" d="M39.46,212.2h-194.58c-6.83,0-12.38,5.55-12.38,12.38V428.8l43.93-43.93H39.46
		c6.83,0,12.38-5.55,12.38-12.38V224.58C51.83,217.75,46.29,212.2,39.46,212.2z M-120.83,319.46c-10.29,0-18.67-8.37-18.67-18.67
		s8.37-18.67,18.67-18.67c10.29,0,18.67,8.37,18.67,18.67S-110.54,319.46-120.83,319.46z M-60.17,319.46
		c-10.29,0-18.67-8.37-18.67-18.67s8.37-18.67,18.67-18.67c10.29,0,18.67,8.37,18.67,18.67S-49.87,319.46-60.17,319.46z M0.5,319.46
		c-10.29,0-18.67-8.37-18.67-18.67s8.37-18.67,18.67-18.67s18.67,8.37,18.67,18.67S10.79,319.46,0.5,319.46z"/>
	<path fill="#FFFFFF" d="M100.12,156.2h-208.58c-6.83,0-12.38,5.55-12.38,12.38v34.29H39.46c11.97,0,21.71,9.74,21.71,21.71v118.29
		h7.4l43.93,43.93V168.58C112.5,161.75,106.95,156.2,100.12,156.2z"/>
</g>
<g>
	<g>
		<path fill="#FFFFFF" d="M-19-1075.5c-26.44,0-48.55-18.5-54.13-43.26l-78.55,67.34c3.6,3.34,8.46,5.42,13.82,5.42h239.72
			c5.34,0,10.18-2.08,13.76-5.42l-80.18-68.77C30.41-1094.72,7.95-1075.5-19-1075.5z"/>
		<path fill="#FFFFFF" d="M-19-1186.5c18.46,0,34.8,9.02,44.89,22.88l89.79-76.96c-3.6-3.36-8.44-5.42-13.82-5.42h-239.72
			c-5.34,0-10.18,2.08-13.78,5.46l88.53,75.87C-52.97-1177.93-36.99-1186.5-19-1186.5z"/>
		<path fill="#FFFFFF" d="M-158-1228.44v166.16l83.56-71.01c0.27-6.68,1.72-13.05,4.15-18.92L-158-1228.44z"/>
		<path fill="#FFFFFF" d="M122-1228.5l-89.2,77.59c1.91,4.97,3.13,10.29,3.53,15.84l85.67,72.8V-1228.5z"/>
	</g>
</g>
</svg>
