<?xml version="1.0" encoding="utf-8"?>
<!-- Generator: Adobe Illustrator 16.0.0, SVG Export Plug-In . SVG Version: 6.00 Build 0)  -->
<!DOCTYPE svg PUBLIC "-//W3C//DTD SVG 1.1//EN" "http://www.w3.org/Graphics/SVG/1.1/DTD/svg11.dtd">
<svg version="1.1" id="Layer_1" xmlns="http://www.w3.org/2000/svg" xmlns:xlink="http://www.w3.org/1999/xlink" x="0px" y="0px"
	 width="280px" height="280px" viewBox="0 0 280 280" enable-background="new 0 0 280 280" xml:space="preserve">
<g>
	<path fill="#FFFFFF" d="M217.03,57.91c5.09-5.47,8.26-12.91,8.26-21.11c0-17.12-13.67-30.79-30.24-30.79
		c-12.58,0-41.56,18.81-53.16,35.71c-11.98-16.9-40.85-35.16-52.94-35.16c-16.52,0-30.24,13.67-30.24,30.79
		c0,7.93,2.95,15.09,7.71,20.51H8.01v73.55h15.97v142.57h83.84h68.41h83.84V131.47h15.91V57.91H217.03z M195.05,17.45
		c10.28,0,18.81,8.53,18.81,19.96c0,9.63-6.73,17.88-15.42,19.63h-46.27c-2.95-0.88-3.88-1.91-3.88-2.52
		C148.29,44.79,182.47,17.45,195.05,17.45z M88.95,17.45c11.98,0,46.76,27.34,46.76,37.08c0,0.88-2.02,1.86-3.5,2.52H85.62
		C76.92,55.3,70.2,47.04,70.2,37.42C70.14,26.52,78.73,17.45,88.95,17.45z M107.77,262.55H35.36V131.47h72.41V262.55z
		 M107.77,120.64H19.45v-51.3h88.38v51.3H107.77z M164.75,262.55h-45.61V69.29h45.61V262.55z M248.59,262.55h-72.41V131.47h72.41
		V262.55z M264.5,120.64h-88.32v-51.3h88.38v51.3H264.5z"/>
</g>
</svg>
