<?xml version="1.0" encoding="utf-8"?>
<!-- Generator: Adobe Illustrator 16.0.0, SVG Export Plug-In . SVG Version: 6.00 Build 0)  -->
<!DOCTYPE svg PUBLIC "-//W3C//DTD SVG 1.1//EN" "http://www.w3.org/Graphics/SVG/1.1/DTD/svg11.dtd">
<svg version="1.1" id="Capa_1" xmlns="http://www.w3.org/2000/svg" xmlns:xlink="http://www.w3.org/1999/xlink" x="0px" y="0px"
	 width="280px" height="280px" viewBox="0 0 280 280" enable-background="new 0 0 280 280" xml:space="preserve">
<g>
	<path fill="#FFFFFF" d="M177.58,27.02c-2.63-0.77-5.37,0.74-6.13,3.36c-0.77,2.62,0.74,5.37,3.36,6.13
		c50.22,14.69,85.3,61.53,85.3,113.92c0,65.44-53.24,118.68-118.68,118.68c-65.44,0-118.68-53.24-118.68-118.68
		c0-52.46,35.13-99.32,85.44-113.96c2.62-0.76,4.13-3.51,3.37-6.13c-0.76-2.62-3.5-4.15-6.13-3.37
		C50.92,42.83,12.86,93.6,12.86,150.43C12.86,221.32,70.53,279,141.43,279S270,221.33,270,150.43
		C270,93.68,231.99,42.93,177.58,27.02z"/>
	<path fill="#FFFFFF" d="M141.43,135.6c2.74,0,4.95-2.21,4.95-4.94V7.03c0-2.73-2.21-4.94-4.95-4.94c-2.73,0-4.94,2.21-4.94,4.94
		v123.62C136.49,133.39,138.7,135.6,141.43,135.6z"/>
</g>
</svg>
