<?xml version="1.0" encoding="utf-8"?>
<!-- Generator: Adobe Illustrator 16.0.0, SVG Export Plug-In . SVG Version: 6.00 Build 0)  -->
<!DOCTYPE svg PUBLIC "-//W3C//DTD SVG 1.1//EN" "http://www.w3.org/Graphics/SVG/1.1/DTD/svg11.dtd">
<svg version="1.1" id="Capa_1" xmlns="http://www.w3.org/2000/svg" xmlns:xlink="http://www.w3.org/1999/xlink" x="0px" y="0px"
	 width="330px" height="280px" viewBox="0 0 330 280" enable-background="new 0 0 330 280" xml:space="preserve">
<g>
	<path fill="#FFFFFF" d="M278.89,91.01C276.08,43.04,236.55,4.7,188.87,4.7c-28.94,0-56.96,14.19-74.32,37.35
		c-0.4-0.21-0.82-0.35-1.22-0.54c-1.06-0.51-2.13-1-3.22-1.43c-0.61-0.24-1.23-0.46-1.84-0.68c-1.08-0.38-2.16-0.71-3.28-1.01
		c-0.62-0.17-1.23-0.34-1.86-0.48c-1.19-0.27-2.41-0.48-3.64-0.66c-0.54-0.08-1.08-0.19-1.63-0.25c-1.76-0.19-3.55-0.31-5.37-0.31
		c-26.44,0-47.97,21.52-47.97,47.97c0,0.69,0.04,1.36,0.08,2.03c-22.17,12.08-37.39,37.4-37.39,62.74
		c0,37.75,30.71,68.46,68.46,68.46h27.47c2.94,0,5.33-2.38,5.33-5.33c0-2.95-2.39-5.33-5.33-5.33H75.67
		c-31.87,0-57.8-25.93-57.8-57.8c0-22.14,14.42-45.12,34.28-54.64l3.03-1.44v-3.36c0-0.66,0.04-1.33,0.08-2l0.05-0.93l-0.06-1
		c-0.03-0.46-0.06-0.93-0.06-1.4c0-20.57,16.73-37.31,37.31-37.31c1.65,0,3.27,0.14,4.89,0.36c0.42,0.05,0.83,0.12,1.24,0.19
		c1.43,0.23,2.83,0.54,4.22,0.94c0.18,0.05,0.37,0.09,0.54,0.14c1.52,0.46,3.01,1.06,4.47,1.72c0.37,0.17,0.73,0.35,1.09,0.53
		c1.29,0.63,2.55,1.34,3.77,2.13c10.27,6.66,17.09,18.19,17.09,31.31c0,2.95,2.39,5.33,5.33,5.33c2.94,0,5.33-2.38,5.33-5.33
		c0-14.68-6.64-27.81-17.05-36.62c15.27-19.99,40.44-32.66,65.47-32.66c41.27,0,75.56,32.7,79.13,74.01
		c-5.45-0.38-13.61-0.58-21.76,0.67c-2.91,0.44-4.91,3.16-4.47,6.07c0.4,2.64,2.67,4.53,5.26,4.53c0.27,0,0.54-0.02,0.81-0.06
		c11.85-1.79,24.21-0.11,24.96-0.01c24.81,4.72,43.52,27.57,43.52,53.21c0,29.47-23.98,53.45-53.44,53.45h-21.17
		c-2.94,0-5.33,2.38-5.33,5.33c0,2.95,2.39,5.33,5.33,5.33h21.17c35.34,0,64.1-28.76,64.1-64.1
		C326.99,124.52,306.6,98.29,278.89,91.01z"/>
	<path fill="#FFFFFF" d="M176.21,144.83c-0.49-0.49-1.08-0.88-1.74-1.16c-1.3-0.54-2.77-0.54-4.07,0c-0.65,0.27-1.24,0.66-1.74,1.16
		l-42.63,42.63c-2.08,2.08-2.08,5.45,0,7.54c1.04,1.04,2.4,1.56,3.77,1.56s2.73-0.52,3.77-1.56l33.54-33.54v109.71
		c0,2.95,2.39,5.33,5.33,5.33c2.94,0,5.33-2.38,5.33-5.33V161.46L211.3,195c1.04,1.04,2.4,1.56,3.77,1.56
		c1.37,0,2.73-0.52,3.77-1.56c2.08-2.08,2.08-5.45,0-7.54L176.21,144.83z"/>
</g>
</svg>
